<svg xmlns="http://www.w3.org/2000/svg" width="14" height="14" fill="none"><path fill="currentColor" d="M9.813.813a2.125 2.125 0 0 1 1.875 3.125H12c.656 0 1.188.531 1.188 1.187v1.25c0 .656-.532 1.188-1.188 1.188h-.063v3.812c0 .961-.747 1.747-1.693 1.809l-.119.004h-6.25a1.813 1.813 0 0 1-1.809-1.694l-.003-.119-.001-3.813H2c-.62 0-1.128-.474-1.183-1.079l-.004-.108v-1.25c0-.656.531-1.187 1.187-1.187h.312A2.123 2.123 0 0 1 4.177.812c1.113-.019 2.1.724 2.758 1.935L7 2.87l.065-.123C7.694 1.59 8.622.86 9.67.814l.143-.001Zm-3.376 6.75h-3.25v3.812c0 .353.266.643.608.683l.08.005h2.563v-4.5Zm4.375 0h-3.25v4.5h2.563a.688.688 0 0 0 .683-.608l.005-.08V7.562Zm-4.374-2.5H2a.062.062 0 0 0-.063.062v1.25c0 .035.028.063.063.063h4.438V5.062Zm5.562 0H7.562v1.374H12a.063.063 0 0 0 .058-.038l.005-.024v-1.25A.063.063 0 0 0 12 5.063ZM4.187 1.938a1 1 0 0 0-.096 1.995l.096.005h2.055c-.468-1.265-1.261-2.014-2.054-2Zm5.616 0c-.785-.014-1.577.735-2.045 2h2.054a1 1 0 1 0-.01-2Z"/></svg>
